<svg width="203" height="35" viewBox="0 0 203 35" fill="none" xmlns="http://www.w3.org/2000/svg">
    <path d="M17.1735 0.00827071C15.7762 0.0540406 14.3406 0.256191 13.031 0.591837C12.1338 0.824501 10.996 1.19066 10.5111 1.41188C10.3431 1.48816 10.156 1.56826 10.0911 1.59115C9.75897 1.7132 8.33867 2.46459 7.8576 2.77354C7.23527 3.17402 6.53275 3.66605 6.20822 3.93686C5.4828 4.54331 5.25754 4.74927 4.71538 5.29851C3.66924 6.36266 2.79874 7.52598 2.07332 8.83042C1.95114 9.05164 1.80606 9.30719 1.74879 9.40255C1.54261 9.75345 1.25244 10.5125 1.02336 11.302C0.893552 11.7444 0.798101 12.1259 0.813373 12.1449C0.824827 12.1678 0.889734 12.1754 0.958458 12.1678C1.02336 12.1602 1.24481 12.1335 1.44335 12.1106C2.4093 12 3.13091 11.8551 3.80669 11.63C4.63902 11.3554 5.54007 10.8977 6.34567 10.3408C6.54421 10.2035 6.83438 10.0014 6.99855 9.89076C7.16272 9.78015 7.42617 9.58563 7.58652 9.45976C10.3546 7.27806 11.2938 6.63347 12.8401 5.86301C14.0084 5.28325 15.0316 4.97812 16.6199 4.74546C17.101 4.67299 18.8535 4.68825 19.4071 4.76834C21.0946 5.00482 22.1293 5.3481 23.5496 6.13381C23.8283 6.28638 24.5499 6.74408 24.6607 6.83943C24.7103 6.88139 24.9317 7.05684 25.1532 7.23229C25.6648 7.63659 26.9362 8.90671 27.2531 9.32626C27.3867 9.50553 27.5929 9.76871 27.7113 9.91746C27.8296 10.0624 28.0969 10.4324 28.303 10.7375C28.5054 11.0426 28.7727 11.4088 28.891 11.5575C29.4523 12.2594 30.109 12.7438 30.7809 12.9573C31.0864 13.0527 32.0676 13.0947 32.5258 13.0298C32.9801 12.965 33.5452 12.8086 33.7361 12.6942C33.9232 12.5874 34.0491 12.37 34.0491 12.1487C34.0491 11.8131 33.7132 10.8367 33.3161 10.0128C33.0565 9.47883 32.373 8.29263 32.1096 7.91503C30.8611 6.13763 29.5515 4.77979 27.8449 3.48678C27.5433 3.25794 26.4513 2.5218 26.226 2.39594C24.3247 1.33178 23.2709 0.904598 21.297 0.397315C20.2012 0.115067 18.5595 -0.0374992 17.1735 0.00827071Z" fill="#376268"/>
    <path d="M16.9063 7.44175C15.7571 7.57525 14.8293 7.81172 13.7793 8.24654C13.3556 8.41818 12.3896 8.95216 11.8283 9.31832C11.3206 9.65396 10.1713 10.516 9.53754 11.0423C9.29701 11.2407 9.00302 11.4733 8.88848 11.5572C8.6594 11.7212 8.18978 12.0874 8.06761 12.198C7.94543 12.3086 6.91075 12.999 6.49077 13.2507C5.70426 13.7199 5.06283 14.0021 4.11597 14.3034C3.35237 14.5437 2.72239 14.6505 1.77553 14.7001C1.14174 14.7344 1.09592 14.7421 0.859205 14.8527C0.572854 14.99 0.404862 15.1464 0.271231 15.4019C-0.11057 16.1495 -0.0838436 18.1061 0.317047 18.8995C0.557582 19.3724 1.03102 19.5059 2.14587 19.4106C3.48981 19.2962 4.51686 19.0559 5.66226 18.5944C6.21205 18.3731 7.45673 17.7819 7.67053 17.637C7.74689 17.5874 7.96452 17.4501 8.14779 17.3357C8.67467 17.0115 9.28937 16.5881 9.72844 16.2525C9.94989 16.0846 10.3011 15.8176 10.5111 15.6575C10.9426 15.3371 10.9846 15.3027 11.1755 15.1387C11.4045 14.9404 12.8172 13.8915 13.1837 13.6474C14.5086 12.7625 15.3944 12.3658 16.4481 12.1828C16.7841 12.1255 17.7386 12.1255 18.0899 12.1828C19.1933 12.3696 20.3731 12.999 21.4421 13.9792C21.8735 14.3721 22.557 14.8527 22.9808 15.0586C23.8284 15.4667 24.508 15.4477 25.4357 14.9823C26.1077 14.6467 26.52 14.3034 26.6613 13.9678C26.8064 13.6169 26.6919 13.3041 26.0886 12.4154C25.6114 11.7098 25.2754 11.3093 24.5843 10.6228C23.5955 9.63871 23.0609 9.20771 22.1561 8.66228C21.1863 8.07872 20.1974 7.71637 18.9909 7.51041C18.6588 7.45319 17.2156 7.40742 16.9063 7.44175Z" fill="#376268"/>
    <path d="M32.6938 15.7757C31.3002 15.8329 29.8723 16.0808 28.7536 16.4584C28.0358 16.7025 26.669 17.4158 25.9932 17.8964C25.1227 18.5181 24.2751 19.1817 22.9006 20.3222C22.4959 20.6578 21.927 21.0926 21.7629 21.1956C21.6865 21.2414 21.6139 21.291 21.6025 21.3024C21.4803 21.4512 20.3196 22.1339 19.8233 22.3551C19.7011 22.4085 19.5293 22.4848 19.4415 22.523C18.7543 22.8395 18.0441 23.0264 17.2881 23.0951C16.2687 23.1904 15.383 23.015 14.4361 22.5382C13.5885 22.111 13.0731 21.7144 12.298 20.9019C11.7215 20.2917 11.6069 20.2001 11.2748 20.0704C10.9044 19.9255 10.5226 19.8797 9.91175 19.9026C9.12524 19.9293 8.64417 20.0895 8.23946 20.4519C7.98365 20.6807 7.91875 20.8791 7.94165 21.3901C7.95693 21.7258 7.97602 21.8173 8.08292 22.0653C8.45327 22.9082 8.97633 23.6291 9.90029 24.5673C10.4615 25.1357 11.5955 25.9519 12.3629 26.3371C13.348 26.833 14.0963 27.1152 14.8828 27.2907C16.6696 27.6835 18.3801 27.6072 20.0066 27.058C20.6938 26.8291 21.8888 26.1998 22.5837 25.7001C22.7517 25.5781 23.0877 25.3378 23.3282 25.17C23.565 24.9983 23.9048 24.7428 24.0842 24.5979C24.4202 24.3271 25.2716 23.6481 25.7183 23.2934C26.2757 22.851 27.6808 21.9508 28.284 21.6457C28.5704 21.5008 29.731 21.0087 30.0594 20.8905C30.9184 20.5815 31.934 20.4023 33.1787 20.3336C34.1294 20.284 34.1523 20.2802 34.4119 20.0514C34.6448 19.8492 34.8166 19.4259 34.9235 18.7813C35.061 17.9574 35.0075 16.9161 34.809 16.5309C34.5837 16.0885 34.1179 15.81 33.5338 15.7643C33.4307 15.7566 33.0527 15.7604 32.6938 15.7757Z" fill="#376268"/>
    <path d="M2.11913 22.0081C1.11881 22.1721 0.756104 22.3933 0.756104 22.851C0.756104 23.0494 0.866826 23.53 0.962276 23.7512C0.99282 23.8198 1.115 24.1174 1.23335 24.411C1.55025 25.1929 2.2184 26.4097 2.77583 27.2144C3.69979 28.5494 5.11245 30.0713 6.31894 31.0172C7.24672 31.7495 7.4109 31.8677 8.22031 32.3712C9.58334 33.2256 11.1182 33.9388 12.3896 34.3088C14.7186 34.9915 16.8261 35.1555 19.3307 34.858C20.6556 34.7016 22.3966 34.3164 23.1678 34.0113C23.3244 33.9503 23.5229 33.8778 23.6069 33.8511C23.9162 33.7557 25.2219 33.1836 25.6763 32.9509C26.8293 32.3521 28.1083 31.4939 29.0476 30.6891C29.857 29.9912 30.8535 28.9423 31.4033 28.1985C32.2814 27.0123 32.4418 26.7567 33.0603 25.5553C33.3314 25.0213 33.507 24.6284 33.5834 24.3729C33.7933 23.6787 34.0148 22.8587 33.9995 22.8396C33.9728 22.8167 32.7892 22.9693 32.2738 23.0608C31.7698 23.1524 31.2009 23.2935 30.8077 23.427C30.1815 23.6368 28.7841 24.392 28.158 24.8611C28.0052 24.9755 27.7876 25.1319 27.6693 25.2158C27.3562 25.4332 26.7529 25.8909 26.3177 26.2457C25.535 26.8788 24.3667 27.7332 23.8169 28.0803C23.5954 28.2176 23.2862 28.4121 23.1296 28.5113C22.1561 29.1253 20.5563 29.7928 19.4262 30.0522C17.5134 30.4946 15.1653 30.3993 13.3784 29.8043C12.8057 29.6136 11.7329 29.1559 11.3969 28.9613C11.2976 28.9041 11.206 28.8545 11.1945 28.8545C11.1755 28.8545 10.2935 28.2748 10.2629 28.2443C10.2515 28.2328 10.1828 28.1794 10.1102 28.1298C9.09846 27.4357 7.60561 25.868 6.7122 24.5636C6.12804 23.7092 5.88369 23.3927 5.54007 23.0341C5.017 22.4925 4.67338 22.2713 4.0205 22.0653C3.67306 21.9547 2.6422 21.9242 2.11913 22.0081Z" fill="#376268"/>
    <path d="M40 29.36V6V6C42.7728 6 45.3765 7.33326 46.9972 9.58306L51.424 15.728L56.1799 9.35889C57.7583 7.24501 60.2418 6 62.88 6V6V29.36H58.432V13.168L51.392 22.672L44.448 13.264V29.36H40Z" fill="#376268"/>
    <path d="M65.2775 29.36V15.36C65.2775 14.2554 66.1729 13.36 67.2775 13.36H69.6615V29.36H65.2775ZM65.2775 11.76V7.376H69.6615V11.76H65.2775Z" fill="#376268"/>
    <path d="M71.9025 29.36V13.36H74.4625C75.4522 13.36 76.2545 14.1623 76.2545 15.152V15.152C77.3425 13.744 78.8145 13.04 80.6705 13.04C82.5585 13.04 84.0305 13.616 85.1185 14.768C86.1745 15.92 86.7185 17.552 86.7185 19.6V29.36H82.2705V20.176C82.2705 19.088 82.0145 18.256 81.5025 17.68C80.9905 17.104 80.2865 16.784 79.3265 16.784C78.4305 16.784 77.6945 17.104 77.1185 17.744C76.5425 18.384 76.2865 19.344 76.2865 20.624V29.36H71.9025Z" fill="#376268"/>
    <path d="M96.197 29.68C94.277 29.68 92.485 28.944 90.885 27.472C89.285 26 88.485 23.984 88.485 21.36C88.485 19.568 88.869 18.032 89.701 16.72C90.501 15.44 91.461 14.48 92.613 13.904C93.765 13.328 94.981 13.04 96.261 13.04C98.245 13.04 99.813 13.68 101.029 14.928V10.384C101.029 7.96279 102.992 6 105.413 6V6V29.36H102.821C101.831 29.36 101.029 28.5577 101.029 27.568V27.568C99.813 28.976 98.213 29.68 96.197 29.68ZM97.061 25.648C98.213 25.648 99.205 25.232 99.973 24.4C100.741 23.568 101.157 22.544 101.157 21.328C101.157 20.144 100.741 19.12 99.973 18.288C99.205 17.456 98.213 17.04 97.061 17.04C95.845 17.04 94.821 17.456 93.989 18.256C93.157 19.088 92.773 20.112 92.773 21.328C92.773 22.576 93.157 23.6 93.989 24.432C94.821 25.264 95.845 25.648 97.061 25.648Z" fill="#376268"/>
    <path d="M107.812 29.36V6H115.141C117.765 6 119.845 6.768 121.413 8.24C122.949 9.712 123.749 11.6 123.749 13.84C123.749 15.376 123.365 16.784 122.597 18.032C121.829 19.312 120.709 20.208 119.237 20.784L124.549 29.36H119.461L113.581 19.6684C113.086 18.852 113.674 17.808 114.629 17.808V17.808C116.197 17.808 117.349 17.424 118.117 16.592C118.885 15.76 119.269 14.864 119.269 13.84C119.269 11.408 117.701 10.16 114.629 10.16H112.26V29.36H107.812Z" fill="#376268"/>
    <path d="M132.527 29.68C130.063 29.68 128.047 28.88 126.447 27.28C124.847 25.68 124.079 23.728 124.079 21.36C124.079 19.056 124.879 17.104 126.511 15.472C128.111 13.872 130.095 13.04 132.399 13.04C134.799 13.04 136.783 13.84 138.319 15.44C139.855 17.04 140.655 18.992 140.655 21.328V22.928H128.303C128.559 23.824 129.039 24.56 129.775 25.072C130.479 25.584 131.407 25.84 132.559 25.84C133.423 25.84 134.191 25.616 134.895 25.168V25.168C136.014 24.4557 137.466 23.9231 138.605 24.6026L139.983 25.424C139.247 26.736 138.255 27.76 136.975 28.528C135.695 29.296 134.223 29.68 132.527 29.68ZM132.431 16.88C131.535 16.88 130.735 17.136 130.031 17.584C129.327 18.032 128.815 18.64 128.495 19.408H136.239C135.663 17.744 134.383 16.88 132.431 16.88Z" fill="#376268"/>
    <path d="M148.834 29.68C145.09 29.68 142.626 28.24 141.474 25.36L145.666 23.728C146.242 25.2 147.362 25.904 149.026 25.904C149.698 25.904 150.242 25.776 150.626 25.488C151.01 25.232 151.234 24.88 151.234 24.464C151.234 24.112 150.946 23.824 150.434 23.632C149.89 23.44 149.09 23.216 148.066 23.024C147.938 23.024 147.874 22.992 147.81 22.992C146.978 22.864 146.242 22.672 145.666 22.48C145.058 22.288 144.45 22 143.874 21.648C143.266 21.296 142.818 20.816 142.498 20.208C142.178 19.6 142.05 18.896 142.05 18.064C142.05 16.688 142.658 15.504 143.874 14.512C145.09 13.52 146.69 13.04 148.61 13.04C151.842 13.04 154.114 14.288 155.394 16.752L151.522 18.384C151.042 17.232 150.05 16.624 148.578 16.624C147.874 16.624 147.362 16.752 147.01 17.008C146.658 17.264 146.498 17.552 146.498 17.936C146.498 18.288 146.722 18.544 147.17 18.736C147.618 18.928 148.514 19.12 149.826 19.376C150.626 19.568 151.33 19.728 151.906 19.92C152.482 20.112 153.058 20.4 153.698 20.752C154.306 21.136 154.786 21.616 155.106 22.224C155.426 22.832 155.618 23.536 155.618 24.336C155.618 25.68 155.01 26.928 153.826 28.048C152.61 29.168 150.946 29.712 148.834 29.68Z" fill="#376268"/>
    <path d="M156.739 17.296V13.36H159.459V9.616L163.843 7.216V13.36H166.851V14.288C166.851 15.9493 165.504 17.296 163.843 17.296V17.296V22.384C163.843 23.664 164.003 24.464 164.355 24.784C164.675 25.104 165.507 25.264 166.851 25.264V29.36H166.211C163.651 29.36 161.891 28.88 160.931 27.856C159.939 26.832 159.459 25.04 159.459 22.416V17.296H156.739Z" fill="#376268"/>
    <path d="M176.277 29.68C173.813 29.68 171.797 28.88 170.197 27.28C168.597 25.68 167.829 23.728 167.829 21.36C167.829 19.056 168.629 17.104 170.261 15.472C171.861 13.872 173.845 13.04 176.149 13.04C178.549 13.04 180.533 13.84 182.069 15.44C183.605 17.04 184.405 18.992 184.405 21.328V22.928H172.053C172.309 23.824 172.789 24.56 173.525 25.072C174.229 25.584 175.157 25.84 176.309 25.84C177.173 25.84 177.941 25.616 178.645 25.168V25.168C179.764 24.4557 181.216 23.9231 182.355 24.6026L183.733 25.424C182.997 26.736 182.005 27.76 180.725 28.528C179.445 29.296 177.973 29.68 176.277 29.68ZM176.181 16.88C175.285 16.88 174.485 17.136 173.781 17.584C173.077 18.032 172.565 18.64 172.245 19.408H179.989C179.413 17.744 178.133 16.88 176.181 16.88Z" fill="#376268"/>
    <path d="M193.416 29.68C191.496 29.68 189.704 28.944 188.104 27.472C186.504 26 185.704 23.984 185.704 21.36C185.704 19.568 186.088 18.032 186.92 16.72C187.72 15.44 188.68 14.48 189.832 13.904C190.984 13.328 192.2 13.04 193.48 13.04C195.464 13.04 197.032 13.68 198.248 14.928V10.384C198.248 7.96278 200.211 6 202.632 6V6V29.36H200.04C199.05 29.36 198.248 28.5577 198.248 27.568V27.568C197.032 28.976 195.432 29.68 193.416 29.68ZM194.28 25.648C195.432 25.648 196.424 25.232 197.192 24.4C197.96 23.568 198.376 22.544 198.376 21.328C198.376 20.144 197.96 19.12 197.192 18.288C196.424 17.456 195.432 17.04 194.28 17.04C193.064 17.04 192.04 17.456 191.208 18.256C190.376 19.088 189.992 20.112 189.992 21.328C189.992 22.576 190.376 23.6 191.208 24.432C192.04 25.264 193.064 25.648 194.28 25.648Z" fill="#376268"/>
    <path d="M21 16.9948C21 17.521 20.7922 18.0265 20.421 18.4004C19.5667 19.2613 18.7381 20.1591 17.8519 20.9888C17.6487 21.1762 17.3265 21.1694 17.1321 20.9735L14.5788 18.4004C13.8071 17.6226 13.8071 16.367 14.5788 15.5892C15.3582 14.8038 16.6278 14.8038 17.4071 15.5892L17.4999 15.6827L17.5927 15.5893C17.9663 15.2125 18.4752 15 19.0069 15C19.5385 15 20.0473 15.2125 20.421 15.5892C20.7922 15.9631 21 16.4686 21 16.9948Z" fill="#376268"/>
    </svg>
