<svg xmlns="http://www.w3.org/2000/svg" width="214" height="22" viewBox="0 0 214 22" fill="#BCD0C7">
  <path d="M162.329 52.299c-1.51-2.256-1.147-3.843-.65-5.524.229-.77-1.663-4.612 0-5.276 7.934-3.167 34.835-4.822 49.109-4.822 48.044 0 74.407-1.523 122.375 0 11.865.377 40.105 1.677 40.655 5.304 1.038 6.842 1.793 12.128.443 14.73-.979 1.889-68.952 0-86.205 0-23.67 0-47.39.175-71.004-.267-11.61-.217-24.036-.176-35.476-.684-12.495-.556-16.931-.005-19.247-3.461z" transform="translate(-694 -6425) translate(533 6389)"/>
</svg>
