<svg xmlns="http://www.w3.org/2000/svg" width="374" height="22" preserveAspectRatio="none" fill="#FED56C">
  <path d="M132.342 2972.299c-2.638-2.256-2.003-3.843-1.133-5.524.398-.77-2.909-4.612 0-5.276 13.864-3.167 60.878-4.822 85.823-4.822 83.965 0 130.04-1.523 213.872 0 20.735.377 70.09 1.677 71.051 5.304 1.813 6.842 3.134 12.128.775 14.73-1.712 1.889-120.505 0-150.66 0-41.367 0-82.82.175-124.09-.267-20.29-.217-42.006-.176-62-.684-21.836-.556-29.59-.005-33.638-3.461z" transform="translate(-130 -2956)"/>
</svg>
