<svg xmlns="http://www.w3.org/2000/svg" width="57" height="56" viewBox="0 0 57 56">
  <g fill="none" fill-rule="evenodd">
    <path fill="#BCD0C7"
      d="M25.542 43.197c6.25 0 10.732 4.056 14.932 0C44.964 38.86 48 35.093 48 28.3c0-4.354-5.52-11.35-7.526-14.862C36.419 6.346 29.37 0 20.72 0 7.79 0 0 12.974 0 26.121c0 13.147 12.61 17.076 25.542 17.076z" />
    <path fill="#000" fill-rule="nonzero"
      d="M54.983 13.95h-2.25v-.75c0-.414-.335-.75-.75-.75h-5.25v-.75c0-1.242-1.007-2.25-2.25-2.25-1.242 0-2.25 1.008-2.25 2.25v.75h-1.5v-.75c0-1.242-1.007-2.25-2.25-2.25-1.242 0-2.25 1.008-2.25 2.25v.75h-9v-.75c0-1.242-1.007-2.25-2.25-2.25-1.242 0-2.25 1.008-2.25 2.25v.75h-1.5v-.75c0-1.242-1.007-2.25-2.25-2.25-1.242 0-2.25 1.008-2.25 2.25v.75h-5.25c-.414 0-.75.336-.75.75v37.5c0 .415.336.75.75.75h.75v2.25c0 .415.336.75.75.75h42c.415 0 .75-.335.75-.75v-39c0-.414-.335-.75-.75-.75zm-42.75 36v-27h39v27h-39zm31.5-38.25c0-.414.336-.75.75-.75.415 0 .75.336.75.75v.75h-1.5v-.75zm-6 0c0-.414.336-.75.75-.75.415 0 .75.336.75.75v.75h-1.5v-.75zm-13.5 0c0-.414.336-.75.75-.75.415 0 .75.336.75.75v.75h-1.5v-.75zm-6 0c0-.414.336-.75.75-.75.415 0 .75.336.75.75v.75h-1.5v-.75zm-1.5 2.25v.75c.002 1.242 1.008 2.249 2.25 2.25.415 0 .75-.335.75-.75 0-.414-.335-.75-.75-.75-.414 0-.75-.336-.75-.75v-.75h4.5v.75c.002 1.242 1.008 2.249 2.25 2.25.415 0 .75-.335.75-.75 0-.414-.335-.75-.75-.75-.414 0-.75-.336-.75-.75v-.75h12v.75c.002 1.242 1.008 2.249 2.25 2.25.415 0 .75-.335.75-.75 0-.414-.335-.75-.75-.75-.414 0-.75-.336-.75-.75v-.75h4.5v.75c.002 1.242 1.008 2.249 2.25 2.25.415 0 .75-.335.75-.75 0-.414-.335-.75-.75-.75-.414 0-.75-.336-.75-.75v-.75h7.5v7.5h-39v-7.5h4.5zm37.5 39h-40.5v-1.5h38.25c.415 0 .75-.335.75-.75V15.45h1.5v37.5z" />
    <path fill="#000" fill-rule="nonzero"
      d="M39.933 45.45c.442 0 .8-.346.8-.772V29.223c0-.29-.168-.555-.434-.687-.267-.132-.588-.11-.831.059l-6.4 4.426c-.36.248-.442.73-.185 1.078.257.347.757.427 1.116.178l5.134-3.55v13.95c0 .427.358.773.8.773zM31.733 33.086c0-2.56-1.79-4.636-4-4.636-2.209 0-4 2.076-4 4.636 0 .427.299.773.667.773.368 0 .667-.346.667-.773 0-1.707 1.193-3.09 2.666-3.09 1.473 0 2.667 1.383 2.667 3.09 0 1.707-1.194 3.09-2.667 3.09-.368 0-.667.347-.667.773 0 .427.299.773.667.773 1.473 0 2.667 1.384 2.667 3.09 0 1.707-1.194 3.091-2.667 3.091-1.473 0-2.666-1.384-2.666-3.09 0-.427-.299-.773-.667-.773-.368 0-.667.346-.667.773 0 2.214 1.35 4.12 3.224 4.549 1.874.43 3.749-.737 4.475-2.785.727-2.047.103-4.405-1.49-5.628 1.118-.858 1.79-2.308 1.79-3.863z" />
  </g>
</svg>
